#!OML:ASF E:\acrobat2\Project_11_07_03\Capture day 1\Session 1\Acrobat.ASF
:FULLY-SPECIFIED
:DEGREES
289
root 8.5425 22.2841 12.6328 -1.52361 70.5237 -313.682
lowerback 30.2813 3.66691 3.78518
upperback 20.2777 8.24525 -2.96477
thorax 7.39564 6.15609 -6.68828
lowerneck -2.52531 -5.75758 -9.31924
upperneck 18.5401 -5.90501 -3.35077
head 6.29102 -3.51271 0.110264
rclavicle 1.83876e-014 -7.83212e-014
rhumerus 73.2943 2.06479 -65.467
rradius 31.6194
rwrist -52.3914
rhand -19.9224 -55.7788
rfingers 7.12502
rthumb 6.41476 -85.6617
lclavicle 1.83876e-014 -7.83212e-014
lhumerus 51.0629 49.4652 46.34
lradius 18.9965
lwrist 7.75152
lhand -54.9772 -41.4289
lfingers 7.12502
lthumb -27.3583 -13.3946
rfemur -3.59922 -9.96515 -8.1406
rtibia 50.7818
rfoot -14.5851 -30.5604
rtoes 25.2773
lfemur -79.4747 45.3361 28.0469
ltibia 18.884
lfoot -33.1248 22.1014
ltoes 23.5266
290
root 8.59115 22.1617 12.6835 -0.981356 66.5338 -312.863
lowerback 30.4415 4.59711 2.76065
upperback 20.054 9.12894 -3.68364
thorax 7.19987 6.52909 -7.11727
lowerneck -2.51559 -5.49109 -9.51769
upperneck 18.8495 -5.37893 -3.94659
head 6.36949 -3.31403 -0.0150279
rclavicle 6.85807e-015 1.27222e-014
rhumerus 74.1314 3.75064 -63.5596
rradius 33.7702
rwrist -51.6971
rhand -18.2581 -54.7763
rfingers 7.12502
rthumb 8.02121 -84.6041
lclavicle 6.85807e-015 1.27222e-014
lhumerus 43.2512 49.845 39.8942
lradius 19.3905
lwrist 9.0473
lhand -54.6699 -38.0633
lfingers 7.12502
lthumb -27.0644 -9.98289
rfemur -2.97201 -8.32846 -9.55762
rtibia 49.291
rfoot -13.9419 -31.1616
rtoes 28.7208
lfemur -83.049 45.194 24.5367
ltibia 21.2792
lfoot -34.0603 17.3467
ltoes 34.7095
291
root 8.65034 22.0336 12.728 -2.23393 62.6111 -313.848
lowerback 30.5995 5.27948 2.49189
upperback 19.7934 9.84522 -4.26089
thorax 7.02123 6.87904 -7.76724
lowerneck -2.56417 -5.20547 -9.33453
upperneck 19.0956 -4.79217 -4.91273
head 6.41614 -3.08687 -0.314775
rclavicle -4.72611e-014 2.66371e-014
rhumerus 75.0455 5.28198 -61.3968
rradius 36.3195
rwrist -52.0374
rhand -16.9366 -53.8942
rfingers 7.12502
rthumb 9.29656 -83.6692
lclavicle -4.72611e-014 2.66371e-014
lhumerus 34.819 49.3207 32.8125
lradius 18.9949
lwrist 9.72817
lhand -54.421 -35.2803
lfingers 7.12502
lthumb -26.8262 -7.16314
rfemur -2.29306 -6.81522 -10.1074
rtibia 47.7314
rfoot -13.6633 -31.9262
rtoes 33.1472
lfemur -87.148 44.8616 20.5868
ltibia 23.6877
lfoot -32.6383 15.7189
ltoes 34.7215
292
root 8.71921 21.9049 12.7641 -3.89305 58.8017 -315.513
lowerback 30.4509 5.68606 2.71887
upperback 19.4761 10.2779 -4.66384
thorax 6.89935 7.09539 -8.4144
lowerneck -2.51998 -4.79297 -9.48206
upperneck 19.308 -3.99033 -5.93476
head 6.45189 -2.77776 -0.564152
rclavicle 3.23025e-014 6.04305e-014
rhumerus 76.1405 6.99458 -59.2577
rradius 39.2832
rwrist -52.9287
rhand -17.7868 -53.8265
rfingers 7.12502
rthumb 8.47612 -83.6364
lclavicle 3.23025e-014 6.04305e-014
lhumerus 25.201 47.0577 24.6546
lradius 17.9224
lwrist 10.8315
lhand -54.207 -33.6418
lfingers 7.12502
lthumb -26.6214 -5.49331
rfemur -1.80896 -5.6808 -10.1749
rtibia 46.1694
rfoot -14.3262 -32.9162
rtoes 37.5457
lfemur -91.5838 44.1154 16.5262
ltibia 26.2321
lfoot -30.2821 14.2209
ltoes 31.2464
293
root 8.79226 21.7756 12.8058 -4.37846 54.9231 -316.187
lowerback 29.9577 6.19644 2.38074
upperback 19.0444 10.6774 -5.02642
thorax 6.69391 7.20443 -8.69058
lowerneck -3.10904 -4.63416 -9.84349
upperneck 20.3348 -3.3055 -7.09458
head 6.88293 -2.59682 -0.86413
rclavicle -6.95746e-015 -3.49861e-014
rhumerus 77.2742 8.75413 -57.3531
rradius 42.5027
rwrist -53.9226
rhand -19.2467 -53.8037
rfingers 7.12502
rthumb 7.06706 -83.6657
lclavicle -6.95746e-015 -3.49861e-014
lhumerus 15.7532 43.3131 17.4242
lradius 17.036
lwrist 12.2248
lhand -54.132 -33.4718
lfingers 7.12502
lthumb -26.5497 -5.31246
rfemur -1.89465 -5.05447 -10.7707
rtibia 44.8511
rfoot -16.2504 -34.0649
rtoes 38.8956
lfemur -95.8193 43.3642 11.6209
ltibia 28.2524
lfoot -27.3126 11.5329
ltoes 36.033
294
root 8.86937 21.6335 12.8521 -4.92526 50.8857 -316.807
lowerback 29.6211 6.79903 2.03349
upperback 18.5576 11.2017 -5.38501
thorax 6.38947 7.37892 -8.99927
lowerneck -2.41449 -4.04282 -10.0121
upperneck 19.8476 -2.45686 -7.87691
head 6.59266 -2.21122 -1.00566
rclavicle -4.18442e-014 -2.94201e-014
rhumerus 78.3611 10.0545 -55.7162
rradius 45.73
rwrist -55.0682
rhand -20.4182 -53.9828
rfingers 7.12502
rthumb 5.93605 -83.8796
lclavicle -4.18442e-014 -2.94201e-014
lhumerus 7.72672 39.37 12.4209
lradius 16.6657
lwrist 12.7245
lhand -54.0829 -33.1945
lfingers 7.12502
lthumb -26.5027 -5.02812
rfemur -2.25752 -4.637 -11.3461
rtibia 43.8315
rfoot -18.7203 -35.0498
rtoes 39.626
lfemur -97.3168 42.205 10.1594
ltibia 30.1599
lfoot -26.1358 11.5736
ltoes 32.6131
295
root 8.95942 21.4906 12.9011 -5.87051 46.8035 -317.871
lowerback 29.2436 7.25817 2.11607
upperback 18.0864 11.6488 -5.72444
thorax 6.17702 7.55911 -9.48826
lowerneck -2.83195 -3.71371 -9.40206
upperneck 20.207 -1.68894 -9.28359
head 6.75666 -1.92288 -1.51888
rclavicle -5.31749e-014 -6.52014e-014
rhumerus 79.6607 10.9333 -53.9225
rradius 49.0229
rwrist -56.3482
rhand -21.3948 -54.2328
rfingers 7.12502
rthumb 4.99312 -84.154
lclavicle -5.31749e-014 -6.52014e-014
lhumerus 0.46122 34.7489 8.57845
lradius 16.2907
lwrist 13.072
lhand -53.9058 -32.3503
lfingers 7.12502
lthumb -26.3331 -4.15838
rfemur -2.62751 -4.41987 -11.5229
rtibia 42.8608
rfoot -20.8785 -35.7186
rtoes 41.2601
lfemur -97.1829 41.0041 10.783
ltibia 31.2267
lfoot -27.4342 9.51384
ltoes 37.2972
296
root 9.06296 21.3475 12.9602 -7.11392 42.5981 -319.544
lowerback 28.627 7.65869 2.74575
upperback 17.6123 12.1413 -5.875
thorax 6.13595 7.79503 -10.0307
lowerneck -3.07519 -3.42859 -8.7834
upperneck 20.2664 -1.02782 -10.7625
head 6.80535 -1.67472 -2.05838
rclavicle 8.07066e-014 3.18055e-015
rhumerus 80.9548 11.3948 -51.7566
rradius 52.4198
rwrist -57.284
rhand -23.5729 -54.5306
rfingers 7.12502
rthumb 2.88981 -84.4908
lclavicle 8.07066e-014 3.18055e-015
lhumerus -6.13717 28.4498 6.09617
lradius 16.0916
lwrist 14.7221
lhand -53.7555 -32.3869
lfingers 7.12502
lthumb -26.1893 -4.17355
rfemur -3.08212 -4.28942 -10.9924
rtibia 41.7953
rfoot -22.6345 -36.1397
rtoes 42.3921
lfemur -101.966 40.0952 4.59144
ltibia 34.454
lfoot -23.0944 8.09114
ltoes 31.1717
297
root 9.17409 21.2043 13.0238 -8.40187 38.3175 -321.246
lowerback 28.0534 8.01369 3.5805
upperback 17.1113 12.6125 -5.87313
thorax 6.06771 8.01996 -10.5117
lowerneck -2.79057 -3.107 -8.24716
upperneck 19.9028 -0.450697 -12.1841
head 6.63372 -1.42668 -2.55585
rclavicle 3.8266e-014 -5.08889e-014
rhumerus 81.816 11.4697 -49.557
rradius 55.8513
rwrist -56.1183
rhand -24.4486 -53.9158
rfingers 7.12502
rthumb 2.04412 -83.8857
lclavicle 3.8266e-014 -5.08889e-014
lhumerus -12.333 22.0176 5.19449
lradius 16.2127
lwrist 16.1679
lhand -53.6174 -32.5332
lfingers 7.12502
lthumb -26.057 -4.30032
rfemur -3.43361 -4.22206 -10.2435
rtibia 40.6227
rfoot -23.6622 -36.4107
rtoes 42.9105
lfemur -101.43 39.2393 5.19386
ltibia 35.4654
lfoot -23.9643 4.12256
ltoes 42.7128
298
root 9.29582 21.0695 13.0977 -9.31049 34.0495 -322.184
lowerback 27.5144 8.36799 3.99446
upperback 16.6838 13.0118 -5.97563
thorax 6.01249 8.18949 -10.8658
lowerneck -2.45063 -2.73896 -7.52674
upperneck 19.2822 0.0773133 -13.4807
head 6.37166 -1.16376 -3.04128
rclavicle -5.70512e-014 -1.74931e-014
rhumerus 83.0216 11.422 -47.599
rradius 58.9018
rwrist -53.5446
rhand -25.4802 -53.7608
rfingers 7.12502
rthumb 1.04779 -83.738
lclavicle -5.70512e-014 -1.74931e-014
lhumerus -18.1734 16.8741 5.27279
lradius 15.9132
lwrist 16.0543
lhand -53.3768 -31.9058
lfingers 7.12502
lthumb -25.8267 -3.63925
rfemur -3.5783 -4.35013 -10.1576
rtibia 39.3328
rfoot -23.61 -36.6067
rtoes 43.4787
lfemur -100.685 38.0589 4.81575
ltibia 36.737
lfoot -22.4978 8.27427
ltoes 28.3523
299
root 9.41496 20.8947 13.1585 -9.88299 30.9489 -323
lowerback 27.0657 8.28121 4.42849
upperback 16.1926 12.8433 -6.06212
thorax 5.71961 8.04865 -11.1526
lowerneck -2.16674 -2.48334 -6.73533
upperneck 18.6599 0.400178 -14.6155
head 6.11818 -0.986102 -3.50146
rclavicle 1.21259e-014 3.02153e-014
rhumerus 84.2281 10.9981 -45.8073
rradius 61.5337
rwrist -49.5326
rhand -25.7741 -53.3701
rfingers 7.12502
rthumb 0.763899 -83.3485
lclavicle 1.21259e-014 3.02153e-014
lhumerus -23.8064 12.5108 6.0935
lradius 15.255
lwrist 15.0264
lhand -53.0946 -31.6175
lfingers 7.12502
lthumb -25.5564 -3.31182
rfemur -3.4267 -5.51873 -10.4911
rtibia 38.0501
rfoot -23.1916 -36.8599
rtoes 43.7773
lfemur -101.173 35.8097 2.70277
ltibia 37.8518
lfoot -21.4094 7.4382
ltoes 27.8687
300
root 9.54391 20.7285 13.2356 -10.381 27.5494 -323.504
lowerback 26.6691 8.33079 4.69016
upperback 15.7285 12.8324 -6.23147
thorax 5.46117 7.99171 -11.4653
lowerneck -2.12517 -2.06769 -5.67866
upperneck 18.1927 0.963181 -15.7318
head 5.97346 -0.693183 -3.99597
rclavicle 8.94531e-014 -5.88403e-014
rhumerus 85.1073 10.0321 -44.2924
rradius 63.8765
rwrist -44.4795
rhand -26.2169 -52.5265
rfingers 7.12502
rthumb 0.336236 -82.506
lclavicle 8.94531e-014 -5.88403e-014
lhumerus -29.3667 8.81974 7.58459
lradius 14.7014
lwrist 13.8021
lhand -52.8528 -32.4942
lfingers 7.12502
lthumb -25.3248 -4.15559
rfemur -3.31185 -6.54814 -10.9963
rtibia 36.7211
rfoot -22.2363 -36.962
rtoes 43.0859
lfemur -101.006 34.0193 0.576632
ltibia 38.9117
lfoot -20.6011 6.34101
ltoes 27.8143
301
root 9.68263 20.5601 13.337 -10.9749 23.9319 -324.038
lowerback 26.1303 8.52849 5.04802
upperback 15.3266 13.0514 -6.34342
thorax 5.40454 8.07409 -11.7666
lowerneck -2.20551 -2.11113 -4.98364
upperneck 18.2764 0.918223 -16.2639
head 6.00128 -0.725067 -4.29317
rclavicle 4.69132e-014 -4.13472e-014
rhumerus 85.6292 8.43369 -43.1171
rradius 65.7742
rwrist -38.9648
rhand -27.033 -51.3176
rfingers 7.12502
rthumb -0.451972 -81.2969
lclavicle 4.69132e-014 -4.13472e-014
lhumerus -34.5874 6.42037 9.41949
lradius 14.0171
lwrist 12.0905
lhand -52.5381 -33.1449
lfingers 7.12502
lthumb -25.0232 -4.76394
rfemur -3.16553 -7.53105 -11.3403
rtibia 35.3668
rfoot -21.2862 -37.0056
rtoes 41.9907
lfemur -99.9437 32.6394 -0.764347
ltibia 39.6551
lfoot -20.4061 5.18021
ltoes 29.9921
302
root 9.82838 20.3846 13.4482 -11.7094 20.3037 -325.317
lowerback 25.3892 8.68176 6.23663
upperback 14.8414 13.3806 -6.24734
thorax 5.51535 8.26563 -12.2588
lowerneck -2.10936 -1.60935 -3.43477
upperneck 17.7909 1.42716 -16.818
head 5.84117 -0.396282 -4.69381
rclavicle 1.15295e-014 6.20208e-014
rhumerus 85.5015 6.43561 -42.4274
rradius 67.4604
rwrist -32.9972
rhand -27.6671 -50.3986
rfingers 7.12502
rthumb -1.06439 -80.3757
lclavicle 1.15295e-014 6.20208e-014
lhumerus -39.4782 4.5638 11.6379
lradius 13.2841
lwrist 10.6373
lhand -52.0263 -32.5372
lfingers 7.12502
lthumb -24.5327 -4.08872
rfemur -3.08729 -8.66049 -10.7942
rtibia 34.0556
rfoot -20.8372 -37.1607
rtoes 41.3706
lfemur -98.6567 31.4064 -1.23037
ltibia 40.1263
lfoot -20.3248 4.29835
ltoes 31.6527
303
root 9.96999 20.1937 13.5637 -12.3397 16.5854 -326.953
lowerback 24.6584 8.77969 7.84938
upperback 14.2199 13.7096 -6.07889
thorax 5.57558 8.47141 -12.8965
lowerneck -1.27511 -1.85431 -3.16548
upperneck 17.6259 0.875153 -16.5585
head 5.59065 -0.596893 -4.66883
rclavicle -6.75868e-015 -7.4743e-014
rhumerus 84.892 4.63975 -42.5152
rradius 69.1166
rwrist -26.5146
rhand -28.4136 -49.8993
rfingers 7.12502
rthumb -1.78541 -79.8716
lclavicle -6.75868e-015 -7.4743e-014
lhumerus -44.3853 3.31767 14.0506
lradius 12.5574
lwrist 9.87476
lhand -51.3736 -31.7703
lfingers 7.12502
lthumb -23.907 -3.23844
rfemur -3.25439 -9.61257 -9.58036
rtibia 32.8785
rfoot -21.5657 -37.4867
rtoes 42.0563
lfemur -97.22 30.6121 -1.25202
ltibia 40.0743
lfoot -19.5414 -0.946813
ltoes 47.7944
